<?xml version="1.0" encoding="UTF-8"?>
<svg version="1.1" xmlns="http://www.w3.org/2000/svg" width="666" height="375">
<path d="M0 0 C24.87825842 -0.09033121 49.75638385 -0.1640001 74.63476467 -0.20724869 C86.18650119 -0.22786445 97.7381285 -0.25596633 109.28979492 -0.30175781 C119.35948942 -0.34165561 129.42910481 -0.36743998 139.49887615 -0.37635398 C144.82962116 -0.3815637 150.16013989 -0.39378816 155.4908123 -0.42292023 C160.51161013 -0.45013569 165.53208914 -0.45843255 170.55295372 -0.45243073 C172.392344 -0.45352822 174.23174529 -0.46144545 176.07107162 -0.4768219 C196.24181402 -0.63712843 196.24181402 -0.63712843 202.63053036 5.58904648 C204.0625 7.25 204.0625 7.25 206 10 C204.60344703 13.49873271 203.28739516 14.70891831 199.875 16.25 C199.15054688 16.58515625 198.42609375 16.9203125 197.6796875 17.265625 C196.84824219 17.62914062 196.84824219 17.62914062 196 18 C195.731875 17.360625 195.46375 16.72125 195.1875 16.0625 C194.11332248 13.66868314 194.11332248 13.66868314 191 13 C189.60560336 12.93334624 188.20830125 12.91461801 186.8125 12.9375 C185.554375 12.958125 184.29625 12.97875 183 13 C181.42726432 15.8424854 181.42726432 15.8424854 181 19 C181.68964844 19.17015625 182.37929687 19.3403125 183.08984375 19.515625 C191.94874823 21.80022588 199.87439911 23.91727397 206 31 C206.33 31.33 206.66 31.66 207 32 C208.23853167 44.36762341 208.23853167 44.36762341 205 48.5625 C198.89004332 53.5268398 193.51441444 55.60590986 185.67297363 55.48101807 C184.87392908 55.48443577 184.07488452 55.48785347 183.25162649 55.49137473 C180.5951112 55.49792229 177.93962408 55.47603023 175.28320312 55.45410156 C173.37071761 55.45297241 171.45823036 55.45360828 169.54574585 55.45587158 C164.36854584 55.45701699 159.19171821 55.43353559 154.01460457 55.40557575 C148.59874495 55.38053329 143.18287635 55.37821785 137.76696777 55.37347412 C127.51777113 55.36105273 117.2687456 55.32824235 107.01962423 55.28807616 C95.34858457 55.2433325 83.67753664 55.22136487 72.00643253 55.20129442 C48.0041717 55.15950902 24.00214537 55.08616699 0 55 C0 36.85 0 18.7 0 0 Z " fill="#D40C38" transform="translate(0,160)"/>
<path d="M0 0 C24.87822282 -0.09263813 49.75640402 -0.16400014 74.63476467 -0.20724869 C86.18650119 -0.22786445 97.7381285 -0.25596633 109.28979492 -0.30175781 C119.35948942 -0.34165561 129.42910481 -0.36743998 139.49887615 -0.37635398 C144.82962116 -0.3815637 150.16013989 -0.39378816 155.4908123 -0.42292023 C160.51161013 -0.45013569 165.53208914 -0.45843255 170.55295372 -0.45243073 C172.392344 -0.45352822 174.23174529 -0.46144545 176.07107162 -0.4768219 C196.24181402 -0.63712843 196.24181402 -0.63712843 202.63053036 5.58904648 C204.0625 7.25 204.0625 7.25 206 10 C204.60344703 13.49873271 203.28739516 14.70891831 199.875 16.25 C199.15054688 16.58515625 198.42609375 16.9203125 197.6796875 17.265625 C196.84824219 17.62914062 196.84824219 17.62914062 196 18 C195.731875 17.360625 195.46375 16.72125 195.1875 16.0625 C194.11332248 13.66868314 194.11332248 13.66868314 191 13 C189.60560336 12.93334624 188.20830125 12.91461801 186.8125 12.9375 C185.554375 12.958125 184.29625 12.97875 183 13 C181.42726432 15.8424854 181.42726432 15.8424854 181 19 C181.68964844 19.17015625 182.37929687 19.3403125 183.08984375 19.515625 C191.94874823 21.80022588 199.87439911 23.91727397 206 31 C206.33 31.33 206.66 31.66 207 32 C208.07561576 42.74079162 208.07561576 42.74079162 205.98828125 47.125 C202.25298831 51.61183837 198.65793022 53.30480419 193 54 C185.29425021 54.5831895 178.34872743 54.88478557 172 50 C169.90416887 48.07505198 168.59326588 46.41559666 167 44 C168 41 168 41 170.3125 39.25 C173 38 173 38 175 38.0625 C177 39 177 39 179.125 41.0625 C183.22790017 43.82749794 187.17036761 43.70398031 192 43 C195.22404978 41.33045181 195.22404978 41.33045181 195.6875 38.375 C195.790625 37.59125 195.89375 36.8075 196 36 C195.47792969 35.82984375 194.95585937 35.6596875 194.41796875 35.484375 C192.84808589 34.96749588 191.28057232 34.44339254 189.71484375 33.9140625 C187.85810082 33.28891452 185.99573935 32.6802762 184.12890625 32.0859375 C178.50064601 30.20730518 174.76308099 28.64113322 171 24 C169.12467411 22.12467411 165.92396638 22.85464883 163.42588806 22.84178162 C162.73082974 22.83684364 162.03577141 22.83190566 161.31965071 22.82681805 C158.9734383 22.81136976 156.62725339 22.80306273 154.28100586 22.79467773 C152.60600031 22.78510496 150.93099722 22.77509524 149.2559967 22.76467896 C144.69423353 22.73755871 140.13245993 22.71658783 135.57066035 22.69667697 C130.80868918 22.67486117 126.04675038 22.647451 121.2848053 22.62062073 C112.26086782 22.57063406 103.23691242 22.52571748 94.2129398 22.48259836 C83.94223214 22.43327693 73.67155696 22.37833997 63.40088069 22.32291877 C42.26728385 22.20900706 21.13365554 22.10238733 0 22 C0 14.74 0 7.48 0 0 Z " fill="#E0BD1F" transform="translate(0,160)"/>
<path d="M0 0 C1.90729394 1.10414649 1.90729394 1.10414649 3.75 1.75 C6.35943058 0.6854148 6.35943058 0.6854148 8.75 -1.25 C16.11533913 -3.74672513 22.73514253 -3.76504055 30.0625 -1 C34.96959978 2.19532079 37.85816339 4.96479156 39.37054443 10.7180481 C40.06863361 14.45625554 39.99321067 18.17408874 39.9453125 21.96484375 C39.9424826 22.82058487 39.93965271 23.67632599 39.93673706 24.55799866 C39.92561935 27.26797991 39.90053082 29.97762009 39.875 32.6875 C39.86495931 34.53450041 39.85583537 36.38150604 39.84765625 38.22851562 C39.82570763 42.73580677 39.79123654 47.24284573 39.75 51.75 C35.46 51.75 31.17 51.75 26.75 51.75 C26.73541748 50.68563721 26.72083496 49.62127441 26.70581055 48.5246582 C26.6477022 44.56403531 26.57047055 40.60397352 26.48754883 36.64379883 C26.45435831 34.93197762 26.42630811 33.22004852 26.40356445 31.50805664 C26.36990968 29.04266521 26.31759026 26.57825719 26.26171875 24.11328125 C26.25532883 23.35163162 26.2489389 22.58998199 26.24235535 21.80525208 C26.11910691 17.31986816 25.57288233 14.29784495 22.75 10.75 C20.58929394 10.03756535 20.58929394 10.03756535 18.25 10.25 C17.4765625 10.2603125 16.703125 10.270625 15.90625 10.28125 C13.24812609 10.85910302 12.45227191 11.65922584 10.75 13.75 C10.41868119 16.68397683 10.26129894 19.41709481 10.23828125 22.35546875 C10.22033005 23.19467361 10.20237885 24.03387848 10.18388367 24.89851379 C10.12971437 27.57812479 10.09586427 30.25755702 10.0625 32.9375 C10.02933271 34.75458221 9.9948436 36.5716408 9.95898438 38.38867188 C9.87398428 42.84231905 9.80720498 47.29591259 9.75 51.75 C5.46 51.75 1.17 51.75 -3.25 51.75 C-3.26458252 50.68563721 -3.27916504 49.62127441 -3.29418945 48.5246582 C-3.3522978 44.56403531 -3.42952945 40.60397352 -3.51245117 36.64379883 C-3.54564169 34.93197762 -3.57369189 33.22004852 -3.59643555 31.50805664 C-3.63009032 29.04266521 -3.68240974 26.57825719 -3.73828125 24.11328125 C-3.74467117 23.35163162 -3.7510611 22.58998199 -3.75764465 21.80525208 C-3.88089309 17.31986816 -4.42711767 14.29784495 -7.25 10.75 C-9.41070606 10.03756535 -9.41070606 10.03756535 -11.75 10.25 C-12.5234375 10.2603125 -13.296875 10.270625 -14.09375 10.28125 C-16.72297404 10.85282044 -17.61792822 11.64024867 -19.25 13.75 C-20.47318866 17.41956597 -20.48116124 20.87321003 -20.56640625 24.69921875 C-20.58718735 25.47183548 -20.60796844 26.24445221 -20.62937927 27.04048157 C-20.69471038 29.5060648 -20.75368315 31.97175361 -20.8125 34.4375 C-20.85570087 36.11003691 -20.89931566 37.78256319 -20.94335938 39.45507812 C-21.0503749 43.5532775 -21.15168857 47.65158296 -21.25 51.75 C-25.21 51.75 -29.17 51.75 -33.25 51.75 C-33.32433795 45.87844592 -33.37869117 40.00716781 -33.41479492 34.13525391 C-33.42985098 32.13911159 -33.45030027 30.14300219 -33.47631836 28.14697266 C-33.51284161 25.27237815 -33.52975837 22.39822228 -33.54296875 19.5234375 C-33.55845261 18.63570648 -33.57393646 17.74797546 -33.58988953 16.83334351 C-33.59127661 11.68873749 -33.04048978 8.24954407 -30.25 3.75 C-29.59 3.75 -28.93 3.75 -28.25 3.75 C-28.023125 3.13125 -27.79625 2.5125 -27.5625 1.875 C-25.78866167 -0.99692872 -24.4854754 -1.33562652 -21.25 -2.25 C-13.70095976 -3.63399071 -6.81774075 -3.88303656 0 0 Z " fill="#EAEAEC" transform="translate(416.25,162.25)"/>
<path d="M0 0 C24.99914055 -0.04666328 49.99827459 -0.08196096 74.99744987 -0.10362434 C86.60427173 -0.11394913 98.21106657 -0.12803237 109.81787109 -0.15087891 C119.93107945 -0.17077605 130.04426824 -0.18370768 140.15749562 -0.18817699 C145.51532926 -0.19079062 150.87310694 -0.1969586 156.2309227 -0.21146011 C161.26887191 -0.22498602 166.30674184 -0.22923281 171.34470749 -0.22621536 C173.19831268 -0.22676777 175.0519204 -0.23077482 176.90550995 -0.23841095 C179.42724843 -0.24829422 181.94868364 -0.24599332 184.47042847 -0.24050903 C185.21166486 -0.24633472 185.95290125 -0.2521604 186.71659935 -0.25816262 C191.77175758 -0.22824242 191.77175758 -0.22824242 194 2 C192.82244141 1.94779297 192.82244141 1.94779297 191.62109375 1.89453125 C185.25974161 1.73061911 180.48955379 1.6390487 175 5 C174.4014621 6.0130571 173.80292419 7.0261142 173.18624878 8.06987 C171.26121417 10.41644675 170.22615899 10.95472735 167.20630264 11.55924416 C163.45022144 11.77434967 159.71715206 11.79679806 155.95751953 11.75708008 C154.51001617 11.76361627 153.0625227 11.77279848 151.61505127 11.78442383 C147.68909366 11.80859495 143.76400063 11.79611908 139.8380456 11.77736115 C135.72527749 11.76424526 131.61269757 11.78578834 127.49996948 11.80387878 C119.70624753 11.83307797 111.91283057 11.83268215 104.11907375 11.82095498 C92.69180988 11.80509394 81.26464104 11.83387084 69.8374157 11.86232281 C68.14876179 11.8664592 66.46010785 11.87057826 64.77145386 11.87467957 C63.94668198 11.87673249 63.12191011 11.87878542 62.27214515 11.88090056 C57.37926482 11.8920908 52.48646891 11.89490434 47.59357858 11.89011252 C44.54495034 11.88756573 41.49632906 11.88865955 38.4477005 11.89025116 C37.03803491 11.89001566 35.62836833 11.8880431 34.21870804 11.88416862 C32.28807498 11.87898481 30.35742757 11.88042663 28.42678833 11.88215637 C27.34833208 11.88081601 26.26987583 11.87947565 25.15873909 11.87809467 C21.71767696 12.0108957 18.40360969 12.49009267 15 13 C12.72953769 13.04104791 10.45793952 13.04228991 8.1875 13 C3.93337067 12.7738933 3.93337067 12.7738933 0 14 C0 9.38 0 4.76 0 0 Z " fill="#E44804" transform="translate(0,160)"/>
<path d="M0 0 C22.07882892 -0.11676141 44.15760699 -0.20495297 66.23668194 -0.25906086 C76.48821516 -0.28485102 86.73955664 -0.32001711 96.9909668 -0.37719727 C105.92529753 -0.42700732 114.85948942 -0.45928511 123.79395515 -0.47044247 C128.52549254 -0.4769653 133.25663267 -0.49231259 137.98804283 -0.52865028 C142.44091536 -0.56257191 146.89322674 -0.57306077 151.3462162 -0.56553841 C152.98089268 -0.56691468 154.61558779 -0.57687031 156.25015259 -0.59602737 C158.4824148 -0.62090754 160.71255877 -0.61492618 162.94487 -0.60127258 C164.19389949 -0.60588155 165.44292898 -0.61049051 166.72980785 -0.61523914 C170.88588192 0.16666581 172.27335213 1.86051766 175 5 C177.39276214 6.39358711 177.39276214 6.39358711 179.8125 7.3125 C180.60269531 7.63863281 181.39289063 7.96476563 182.20703125 8.30078125 C183.09455078 8.64689453 183.09455078 8.64689453 184 9 C182 11 182 11 179.97936249 11.24888897 C179.14211891 11.2483442 178.30487534 11.24779943 177.44226074 11.24723816 C176.47997559 11.25143265 175.51769043 11.25562714 174.52624512 11.25994873 C173.4650647 11.25432922 172.40388428 11.24870972 171.31054688 11.24291992 C169.63569214 11.24576744 169.63569214 11.24576744 167.92700195 11.24867249 C164.19084876 11.25240749 160.45488638 11.24160181 156.71875 11.23046875 C154.08044457 11.2292738 151.4421387 11.22882445 148.80383301 11.2290802 C143.22141185 11.22813943 137.63904448 11.2194424 132.05664062 11.20581055 C126.45246307 11.19216818 120.84833506 11.18477583 115.24414062 11.18530273 C76.81880284 11.18861513 38.41783759 10.79638127 0 10 C0 6.7 0 3.4 0 0 Z " fill="#E00A51" transform="translate(0,182)"/>
<path d="M0 0 C4.62437385 3.64317076 6.88625098 7.65875295 8.75 13.25 C8.75 17.87 8.75 22.49 8.75 27.25 C-4.12 27.25 -16.99 27.25 -30.25 27.25 C-29.0364476 33.22468608 -29.0364476 33.22468608 -25.6875 34.5625 C-24.883125 34.789375 -24.07875 35.01625 -23.25 35.25 C-22.755 35.745 -22.755 35.745 -22.25 36.25 C-20.33759516 36.40252309 -18.41827201 36.47192773 -16.5 36.5 C-15.45328125 36.52578125 -14.4065625 36.5515625 -13.328125 36.578125 C-9.86500101 36.2089595 -8.0293977 35.30955369 -5.25 33.25 C-4.755 32.26 -4.755 32.26 -4.25 31.25 C-0.05639551 31.92097672 3.15334352 34.1058394 6.75 36.25 C6.27758009 40.50177923 3.90035929 42.54969203 0.75 45.25 C-0.24 45.25 -1.23 45.25 -2.25 45.25 C-2.25 45.91 -2.25 46.57 -2.25 47.25 C-10.24078435 50.29410832 -20.11405558 50.92803828 -28.125 47.6875 C-35.97294813 43.47854458 -40.96150189 38.79473388 -43.62890625 30.15234375 C-45.50965878 21.36366997 -44.67290731 13.75290409 -39.92578125 6.12109375 C-35.59654241 -0.04892381 -30.8413094 -3.8574803 -23.38671875 -5.43359375 C-14.34663868 -6.77225277 -7.51491403 -5.19515314 0 0 Z M-28.25 10.25 C-30.5273501 13.06509993 -30.5273501 13.06509993 -30.25 16.25 C-21.67 16.25 -13.09 16.25 -4.25 16.25 C-5.34739571 10.76302144 -5.89274692 10.22568503 -10.25 7.25 C-16.38683961 4.1815802 -23.31307163 5.93018768 -28.25 10.25 Z " fill="#E4E3E6" transform="translate(311.25,165.75)"/>
<path d="M0 0 C38.87799593 -0.17240208 77.74885898 0.13261947 116.625 0.5 C118.52356625 0.51793673 118.52356625 0.51793673 120.46048737 0.53623581 C136.30703598 0.68636061 152.15353715 0.84108955 168 1 C168.33 2.65 168.66 4.3 169 6 C168.01 6 167.02 6 166 6 C165.67 7.65 165.34 9.3 165 11 C163.75988663 11.01030746 162.51977325 11.02061493 161.24208069 11.03123474 C149.48913287 11.12948181 137.73623199 11.23225845 125.98336124 11.33933926 C119.94278159 11.39423314 113.9021969 11.44759484 107.86157227 11.49731445 C102.01950322 11.5454585 96.17748497 11.59781075 90.33547783 11.65294075 C88.11946332 11.6731403 85.90343501 11.69188656 83.6873951 11.70907402 C72.25274738 11.79871631 60.87143067 11.99789871 49.4618988 12.79237366 C46.29521779 12.9822944 43.17109623 13.03490884 40 13 C37.16032769 13 34.76264289 13.40267181 32 14 C32 13.34 32 12.68 32 12 C27.91668161 11.97096108 23.8333898 11.95318811 19.75 11.9375 C18.59113281 11.92912109 17.43226562 11.92074219 16.23828125 11.91210938 C15.12324219 11.90888672 14.00820312 11.90566406 12.859375 11.90234375 C11.83295898 11.89710693 10.80654297 11.89187012 9.74902344 11.88647461 C7.06873803 11.89968723 7.06873803 11.89968723 4.82128906 12.56860352 C3 13 3 13 0 12 C0 8.04 0 4.08 0 0 Z " fill="#B4013D" transform="translate(0,192)"/>
<path d="M0 0 C5.95963736 4.18135847 10.90657447 8.8446292 13 16 C13.5583972 21.02879324 13.72312717 26.01833794 13.78393555 31.07495117 C13.81272772 33.45633492 13.86787875 35.83600892 13.92773438 38.21679688 C13.95983681 39.72653128 13.99048934 41.23629737 14.01953125 42.74609375 C14.0340181 43.45954453 14.04850494 44.1729953 14.06343079 44.9080658 C14.08205649 46.6054067 14.04652252 48.30319456 14 50 C13 51 13 51 10.27734375 51.09765625 C9.17519531 51.08605469 8.07304687 51.07445312 6.9375 51.0625 C5.28041016 51.04896484 5.28041016 51.04896484 3.58984375 51.03515625 C2.73519531 51.02355469 1.88054687 51.01195312 1 51 C1 50.01 1 49.02 1 48 C0.40574219 48.28875 -0.18851562 48.5775 -0.80078125 48.875 C-8.04620168 52.12022719 -14.61807624 53.47175585 -22.4140625 51.33984375 C-29.8473337 48.38952477 -36.07397674 43.66869475 -39.4375 36.3125 C-42.77926749 27.875661 -42.57173894 21.13881229 -39.265625 12.65234375 C-35.80479684 5.3995588 -30.24531974 0.63281529 -22.75 -2.25 C-14.88184573 -3.82363085 -7.23635829 -3.78264183 0 0 Z M-22 11 C-22 11.66 -22 12.32 -22 13 C-22.8971875 13.2784375 -22.8971875 13.2784375 -23.8125 13.5625 C-27.03433694 15.67970713 -28.14507185 18.36655534 -29 22 C-29.39956772 27.14897495 -28.50512381 30.89172597 -25.25 34.9375 C-21.60226438 38.68054462 -18.76414971 39.8075473 -13.5625 40.375 C-8.11577296 39.80166031 -5.24454284 37.4127243 -1.6875 33.375 C1.2130942 29.29268224 1.51497194 25.92901712 1 21 C-0.60496865 16.8270815 -2.49959357 13.80032514 -6 11 C-11.95767057 8.51763726 -16.00075608 8.81845676 -22 11 Z " fill="#E9E9EB" transform="translate(365,163)"/>
<path d="M0 0 C12.54 0 25.08 0 38 0 C38 3.3 38 6.6 38 10 C37.34 10 36.68 10 36 10 C35.78988281 10.65226563 35.57976562 11.30453125 35.36328125 11.9765625 C33.47814628 16.15734894 30.86732098 19.66796831 28.1875 23.375 C27.66607422 24.10460937 27.14464844 24.83421875 26.60742188 25.5859375 C25.61973055 26.96697906 24.63000963 28.3465734 23.63745117 29.72412109 C21.41697277 32.8103444 19.20987484 35.90617522 17 39 C24.26 39.33 31.52 39.66 39 40 C39 43.96 39 47.92 39 52 C25.47 52 11.94 52 -2 52 C-2 48.7 -2 45.4 -2 42 C-1.34 42 -0.68 42 0 42 C0.24621094 41.29230469 0.49242187 40.58460938 0.74609375 39.85546875 C2.16098612 36.63339299 3.9497531 34.12310522 6.0625 31.3125 C8.75920044 27.79692983 8.75920044 27.79692983 11 24 C11.66 24 12.32 24 13 24 C13.66 22.35 14.32 20.7 15 19 C15.66 19 16.32 19 17 19 C17.2165625 18.071875 17.2165625 18.071875 17.4375 17.125 C18 15 18 15 19 13 C12.73 12.67 6.46 12.34 0 12 C0 8.04 0 4.08 0 0 Z " fill="#E8E7E9" transform="translate(461,162)"/>
<path d="M0 0 C1.19625 0.04125 2.3925 0.0825 3.625 0.125 C8.05755505 1.27418094 11.07785234 3.47526257 14 7 C14.495 8.98 14.495 8.98 15 11 C12.03 12.98 9.06 14.96 6 17 C5.01 16.34 4.02 15.68 3 15 C3 14.34 3 13.68 3 13 C0.24921116 12.08307039 -1.35948913 11.89113917 -4.1875 11.9375 C-5.445625 11.958125 -6.70375 11.97875 -8 12 C-9.57273568 14.8424854 -9.57273568 14.8424854 -10 18 C-9.31035156 18.17015625 -8.62070313 18.3403125 -7.91015625 18.515625 C0.94874823 20.80022588 8.87439911 22.91727397 15 30 C15.33 30.33 15.66 30.66 16 31 C17.07561576 41.74079162 17.07561576 41.74079162 14.98828125 46.125 C11.25298831 50.61183837 7.65793022 52.30480419 2 53 C-5.70574979 53.5831895 -12.65127257 53.88478557 -19 49 C-21.09583113 47.07505198 -22.40673412 45.41559666 -24 43 C-23 40 -23 40 -20.6875 38.25 C-18 37 -18 37 -16 37.0625 C-14 38 -14 38 -11.875 40.0625 C-7.77209983 42.82749794 -3.82963239 42.70398031 1 42 C4.22404978 40.33045181 4.22404978 40.33045181 4.6875 37.375 C4.790625 36.59125 4.89375 35.8075 5 35 C4.47792969 34.82984375 3.95585937 34.6596875 3.41796875 34.484375 C1.84808589 33.96749588 0.28057232 33.44339254 -1.28515625 32.9140625 C-3.14189918 32.28891452 -5.00426065 31.6802762 -6.87109375 31.0859375 C-13.89870889 28.74022064 -17.81895211 26.27157184 -22 20 C-22.60664913 15.79284892 -22.48082567 12.08185777 -20.75 8.1875 C-14.76499676 0.70624596 -9.27822867 -0.47122352 0 0 Z " fill="#F1EBED" transform="translate(191,161)"/>
<path d="M0 0 C0 4.62 0 9.24 0 14 C3.96 14 7.92 14 12 14 C12 17.96 12 21.92 12 26 C8.04 26 4.08 26 0 26 C0.33 34.91 0.66 43.82 1 53 C3.64 53.33 6.28 53.66 9 54 C10.485 54.495 10.485 54.495 12 55 C12 58.63 12 62.26 12 66 C-3.26015045 66.57146194 -3.26015045 66.57146194 -9 63 C-12.80973409 59.06327478 -13.12639463 55.07458911 -13.11352539 49.77246094 C-13.11344986 48.73168396 -13.11337433 47.69090698 -13.11329651 46.61859131 C-13.10813522 45.50179993 -13.10297394 44.38500854 -13.09765625 43.234375 C-13.0962413 42.08584045 -13.09482635 40.93730591 -13.09336853 39.75396729 C-13.08777143 36.08595169 -13.07521944 32.41799715 -13.0625 28.75 C-13.05748463 26.26302171 -13.05292178 23.77604247 -13.04882812 21.2890625 C-13.03780295 15.1926875 -13.02106769 9.09634811 -13 3 C-11.40084119 2.30093058 -9.79544955 1.61610532 -8.1875 0.9375 C-7.29417969 0.55464844 -6.40085938 0.17179688 -5.48046875 -0.22265625 C-3 -1 -3 -1 0 0 Z " fill="#E3E3E5" transform="translate(224,148)"/>
<path d="M0 0 C0 4.29 0 8.58 0 13 C-1.546875 13.12375 -1.546875 13.12375 -3.125 13.25 C-7.43389898 14.08398045 -9.68329984 15.14609521 -13 18 C-14.83537317 22.35734383 -15.28925045 26.22843376 -15.4140625 30.9296875 C-15.47207031 32.86328125 -15.47207031 32.86328125 -15.53125 34.8359375 C-15.56269758 36.18228707 -15.59394511 37.52864132 -15.625 38.875 C-15.66323041 40.24481514 -15.70228501 41.61460755 -15.7421875 42.984375 C-15.83622715 46.32278263 -15.92188057 49.66118814 -16 53 C-19.96 53 -23.92 53 -28 53 C-28 35.84 -28 18.68 -28 1 C-24.04 1 -20.08 1 -16 1 C-15.67 2.32 -15.34 3.64 -15 5 C-14.236875 4.360625 -13.47375 3.72125 -12.6875 3.0625 C-8.43084487 -0.20423534 -5.23282597 -0.09873257 0 0 Z " fill="#F0F0F2" transform="translate(269,161)"/>
<path d="M0 0 C40.26 0 80.52 0 122 0 C121.67 3.3 121.34 6.6 121 10 C83.71 10 46.42 10 8 10 C8 9.67 8 9.34 8 9 C12.89198891 7.7395672 17.73130999 7.82615686 22.74731445 7.79467773 C23.72340164 7.78477814 24.69948883 7.77487854 25.70515442 7.76467896 C28.92450554 7.73314613 32.1438714 7.70833899 35.36328125 7.68359375 C37.59816364 7.66301713 39.83304221 7.64202047 42.06791687 7.62062073 C47.94508763 7.5654732 53.82229309 7.51603164 59.69952393 7.46777344 C65.69880251 7.41750497 71.69803081 7.36184681 77.69726562 7.30664062 C89.46480078 7.19914857 101.23237962 7.09768373 113 7 C113 5.35 113 3.7 113 2 C112.39099665 2.07175131 111.78199329 2.14350262 111.15453529 2.21742821 C105.16071505 2.87700725 99.29674354 3.11921563 93.27099609 3.03759766 C92.35579697 3.02959641 91.44059784 3.02159515 90.49766541 3.01335144 C87.50617305 2.98572521 84.51483882 2.95014916 81.5234375 2.9140625 C79.42697505 2.8922582 77.33050887 2.87081024 75.23403931 2.84970093 C70.85487249 2.80437618 66.47577156 2.7551777 62.09667969 2.703125 C56.4972831 2.63681837 50.897838 2.57954908 45.29831505 2.52509499 C40.97447785 2.4821592 36.65069842 2.4347617 32.32692337 2.38599777 C30.26256316 2.36318419 28.1981882 2.34166543 26.13380051 2.32149124 C23.24586672 2.29253283 20.3580626 2.25763701 17.47021484 2.22119141 C16.20444359 2.21020164 16.20444359 2.21020164 14.9131012 2.19898987 C9.86671272 2.12776018 4.99742495 1.71289502 0 1 C0 0.67 0 0.34 0 0 Z " fill="#FECF2F" transform="translate(48,171)"/>
<path d="M0 0 C58.74 0 117.48 0 178 0 C178 0.33 178 0.66 178 1 C168.96513228 1.74712923 160.01607901 2.139582 150.9519043 2.09765625 C149.7322699 2.09619598 148.5126355 2.09473572 147.25604248 2.0932312 C143.96143381 2.08848267 140.66687272 2.07934773 137.37227988 2.06846237 C133.90947272 2.05838135 130.44665961 2.0549514 126.98384094 2.05102539 C118.21837921 2.0400062 109.45294412 2.02040535 100.6875 2 C91.17627788 1.97794075 81.66506572 1.95742898 72.1538232 1.94658184 C68.03618333 1.94159525 63.91859244 1.93173278 59.80097234 1.91815186 C56.65597628 1.90898147 53.51097321 1.90618093 50.3659668 1.90234375 C49.22271439 1.89717743 48.07946198 1.89201111 46.90156555 1.88668823 C45.86865387 1.88661774 44.83574219 1.88654724 43.77153015 1.88647461 C42.86884242 1.884254 41.96615469 1.88203339 41.03611279 1.87974548 C39.00508409 1.77352022 39.00508409 1.77352022 38 3 C36.36527118 3.08700342 34.72685945 3.10701063 33.08984375 3.09765625 C32.10048828 3.09443359 31.11113281 3.09121094 30.09179688 3.08789062 C29.05087891 3.07951172 28.00996094 3.07113281 26.9375 3.0625 C25.89271484 3.05798828 24.84792969 3.05347656 23.77148438 3.04882812 C21.1809334 3.03699913 18.59049441 3.02051689 16 3 C15.67 3.66 15.34 4.32 15 5 C14.34 4.67 13.68 4.34 13 4 C12.113125 4.165 11.22625 4.33 10.3125 4.5 C6.6298765 5.0558677 3.64764699 4.65657646 0 4 C0 2.68 0 1.36 0 0 Z " fill="#A33819" transform="translate(0,160)"/>
<path d="M0 0 C0.763125 0.309375 1.52625 0.61875 2.3125 0.9375 C7.1062064 2.83268625 11.0897875 3.12037796 16.1875 3.0625 C17.31188477 3.05573242 17.31188477 3.05573242 18.45898438 3.04882812 C20.30602383 3.03706354 22.15302213 3.01912865 24 3 C21.51068984 5.48931016 20.06064975 5.23826624 16.66425312 5.25816262 C15.91523483 5.25233693 15.16621654 5.24651125 14.39450073 5.24050903 C13.20362372 5.24307231 13.20362372 5.24307231 11.98868859 5.24568737 C9.31382064 5.248996 6.63920052 5.23795613 3.96435547 5.22705078 C2.05275478 5.22648696 0.14115366 5.22680265 -1.77044678 5.22793579 C-6.97267942 5.22851145 -12.17482051 5.21672268 -17.3770318 5.20278788 C-22.80895688 5.190316 -28.24088386 5.18911282 -33.67282104 5.18673706 C-43.96465486 5.18051184 -54.25644637 5.16408698 -64.54826152 5.14403808 C-76.26271031 5.12171143 -87.97716108 5.1106938 -99.69162583 5.10064721 C-123.79444071 5.07972163 -147.89721799 5.04452547 -172 5 C-172 4.34 -172 3.68 -172 3 C-163.60489052 1.43811917 -155.12361519 1.68945834 -146.652771 2.50120544 C-139.68955346 3.08868934 -132.77052968 3.1333608 -125.78613281 3.11352539 C-124.40507001 3.11324255 -123.02400705 3.11340313 -121.64294434 3.1139679 C-117.93301594 3.1142521 -114.22312059 3.10841681 -110.51319981 3.10139394 C-106.62149287 3.09509718 -102.72978498 3.09455164 -98.83807373 3.09336853 C-91.48611134 3.09027372 -84.134164 3.08208552 -76.7822082 3.07201904 C-68.40482417 3.06080013 -60.02743938 3.05533296 -51.65004969 3.05032361 C-34.43335778 3.03990116 -17.21668049 3.02233791 0 3 C0 2.01 0 1.02 0 0 Z " fill="#8C1D40" transform="translate(172,210)"/>
<path d="M0 0 C1.7578125 1.609375 1.7578125 1.609375 2.2578125 4.109375 C1.7578125 6.609375 1.7578125 6.609375 0.03125 8.234375 C-3.8654311 10.59113058 -7.83856193 10.3967321 -12.2421875 9.609375 C-14.5335327 8.16757516 -16.24411842 6.46472486 -18.2421875 4.609375 C-20.39950882 4.52368997 -20.39950882 4.52368997 -22.2421875 5.609375 C-22.9434375 5.91875 -23.6446875 6.228125 -24.3671875 6.546875 C-26.39833686 7.58780033 -26.39833686 7.58780033 -28.2421875 9.609375 C-29.3671875 5.859375 -29.3671875 5.859375 -28.2421875 3.609375 C-27.2521875 3.609375 -26.2621875 3.609375 -25.2421875 3.609375 C-25.5721875 1.959375 -25.9021875 0.309375 -26.2421875 -1.390625 C-5.39099857 -3.34354615 -5.39099857 -3.34354615 0 0 Z " fill="#CD0343" transform="translate(194.2421875,194.390625)"/>
<path d="M0 0 C13.3430852 -0.11580579 26.68605102 -0.20467113 40.02953625 -0.25906086 C46.22535631 -0.28516414 52.42083278 -0.32057664 58.61645508 -0.37719727 C64.59462681 -0.43148929 70.57246786 -0.46141503 76.55086708 -0.47438622 C78.83268757 -0.48363101 81.11448979 -0.50168387 83.39616966 -0.52865028 C86.59027717 -0.564902 89.78301509 -0.5699468 92.97729492 -0.56762695 C93.92244461 -0.58560333 94.8675943 -0.60357971 95.84138489 -0.62210083 C100.39483611 -0.5862723 102.36188254 -0.48957743 106.07563782 2.35969543 C108.02944944 5.04040585 108.71925619 6.72465554 109 10 C105.7 10 102.4 10 99 10 C98.34 7.69 97.68 5.38 97 3 C91.56967591 2.08592398 86.3524331 1.86252515 80.85180664 1.88647461 C79.51891098 1.88625557 79.51891098 1.88625557 78.15908813 1.8860321 C75.24275206 1.88672482 72.32648107 1.89448703 69.41015625 1.90234375 C67.37991877 1.90421021 65.34968084 1.90563304 63.31944275 1.90663147 C57.99135074 1.91043869 52.66328626 1.92025358 47.33520508 1.93133545 C41.89209363 1.94158823 36.44897771 1.94613736 31.00585938 1.95117188 C20.33722753 1.96187752 9.66861606 1.9789323 -1 2 C-0.67 1.34 -0.34 0.68 0 0 Z " fill="#E50C42" transform="translate(63,203)"/>
<path d="M0 0 C40.26 0 80.52 0 122 0 C122 0.33 122 0.66 122 1 C108.74251064 2.98156393 95.78773362 3.20771707 82.40234375 3.01171875 C80.27105086 2.98801307 78.1397485 2.96514604 76.00843811 2.94306946 C71.57688548 2.89493443 67.14550389 2.83966108 62.71411133 2.77856445 C57.04880882 2.7006241 51.38345597 2.63639215 45.7179327 2.57690716 C41.33147893 2.53011256 36.9450951 2.4783814 32.55871773 2.42493629 C30.4692356 2.39963673 28.37974121 2.37532914 26.29023552 2.3520565 C23.37431532 2.31838801 20.45854171 2.27861977 17.54272461 2.23706055 C16.69117294 2.22816299 15.83962128 2.21926544 14.96226501 2.21009827 C9.900813 2.13013982 5.01249996 1.71453692 0 1 C0 0.67 0 0.34 0 0 Z " fill="#FDC128" transform="translate(48,171)"/>
<path d="M0 0 C3.02046383 0.48035867 5.83194882 0.63944118 8.88670921 0.65980625 C10.56508369 0.67448948 10.56508369 0.67448948 12.27736473 0.68946934 C13.49009056 0.6952248 14.70281639 0.70098026 15.95229149 0.70691013 C17.24063896 0.71680973 18.52898643 0.72670933 19.85637474 0.73690891 C23.37654877 0.76385003 26.89673605 0.78491772 30.41695547 0.8049109 C34.10052157 0.82683736 37.78404731 0.85419335 41.4675808 0.88096714 C48.43722121 0.93080423 55.40688415 0.97577624 62.37656844 1.0189895 C70.31370532 1.06843884 78.25080169 1.12332834 86.18789935 1.1786691 C102.50987939 1.29235117 118.83189664 1.39921999 135.15395164 1.50158787 C135.15395164 1.83158787 135.15395164 2.16158787 135.15395164 2.50158787 C79.05395164 2.50158787 22.95395164 2.50158787 -34.84604836 2.50158787 C-34.84604836 1.84158787 -34.84604836 1.18158787 -34.84604836 0.50158787 C-7.74366245 -1.35610321 -7.74366245 -1.35610321 0 0 Z " fill="#FB8937" transform="translate(34.84604835510254,179.49841213226318)"/>
<path d="M0 0 C17.82 0 35.64 0 54 0 C54 0.33 54 0.66 54 1 C52.39318359 1.09087891 52.39318359 1.09087891 50.75390625 1.18359375 C49.35675609 1.26798537 47.95962143 1.35263406 46.5625 1.4375 C45.50192383 1.49647461 45.50192383 1.49647461 44.41992188 1.55664062 C40.91309581 1.47624438 40.91309581 1.47624438 38 3 C36.36527118 3.08700342 34.72685945 3.10701063 33.08984375 3.09765625 C32.10048828 3.09443359 31.11113281 3.09121094 30.09179688 3.08789062 C29.05087891 3.07951172 28.00996094 3.07113281 26.9375 3.0625 C25.89271484 3.05798828 24.84792969 3.05347656 23.77148438 3.04882812 C21.1809334 3.03699913 18.59049441 3.02051689 16 3 C15.67 3.66 15.34 4.32 15 5 C14.34 4.67 13.68 4.34 13 4 C12.113125 4.165 11.22625 4.33 10.3125 4.5 C6.6298765 5.0558677 3.64764699 4.65657646 0 4 C0 2.68 0 1.36 0 0 Z " fill="#993115" transform="translate(0,160)"/>
<path d="M0 0 C-3.6740839 2.44938926 -5.8684312 2.35738672 -10.25 2.5625 C-14.06474899 2.75017339 -17.77935491 2.96730287 -21.55859375 3.52734375 C-25.03644026 4.00500485 -28.30602614 4.06531267 -31.8125 4 C-36.06662933 3.7738933 -36.06662933 3.7738933 -40 5 C-40 3.35 -40 1.7 -40 0 C-35.10723085 -0.16811151 -30.2142924 -0.32861689 -25.32104492 -0.48217773 C-23.65756573 -0.53544145 -21.99415092 -0.5907578 -20.33081055 -0.64819336 C-17.93552527 -0.73054248 -15.54010311 -0.80542899 -13.14453125 -0.87890625 C-12.03486748 -0.91945885 -12.03486748 -0.91945885 -10.90278625 -0.96083069 C-7.11382329 -1.06955378 -3.68060123 -0.93831637 0 0 Z " fill="#945315" transform="translate(40,169)"/>
<path d="M0 0 C0 0.33 0 0.66 0 1 C-15.84 1 -31.68 1 -48 1 C-48 0.34 -48 -0.32 -48 -1 C-31.7676276 -2.11262283 -16.13092642 -2.37406539 0 0 Z " fill="#AE722E" transform="translate(48,181)"/>
<path d="M0 0 C2.94425817 -0.24535485 4.65769564 -0.17577792 7.3125 1.1875 C9 3 9 3 9.5 5.5 C9 8 9 8 7.28515625 9.6328125 C4.61182679 11.23224038 3.0306371 11.40299219 -0.0625 11.375 C-0.91972656 11.38273438 -1.77695313 11.39046875 -2.66015625 11.3984375 C-5.40312296 10.93135469 -6.28099347 10.13044088 -8 8 C-4.62182575 7.15545644 -2.32534757 6.89155081 1 8 C1.66 6.35 2.32 4.7 3 3 C2.01 2.67 1.02 2.34 0 2 C0 1.34 0 0.68 0 0 Z " fill="#C2144C" transform="translate(187,193)"/>
<path d="M0 0 C0 0.33 0 0.66 0 1 C-11.88 1 -23.76 1 -36 1 C-36 0.34 -36 -0.32 -36 -1 C-23.9532118 -3.26103382 -12.0007842 -1.74556861 0 0 Z " fill="#6F1236" transform="translate(36,214)"/>
<path d="M0 0 C0.66 0.66 1.32 1.32 2 2 C1.21496094 1.96519531 0.42992187 1.93039063 -0.37890625 1.89453125 C-9.62315644 1.65633585 -14.89102136 2.75271574 -22 9 C-22.33 8.01 -22.66 7.02 -23 6 C-23.66 5.67 -24.32 5.34 -25 5 C-24.67 4.01 -24.34 3.02 -24 2 C-16.09808555 -0.03920373 -8.14614998 -0.74454059 0 0 Z " fill="#C35024" transform="translate(192,160)"/>
<path d="M0 0 C6.33333333 0.48717949 6.33333333 0.48717949 9.4375 2.875 C11 5 11 5 11 8 C7.7 8 4.4 8 1 8 C0.67 5.36 0.34 2.72 0 0 Z " fill="#F10E3A" transform="translate(161,205)"/>
<path d="M0 0 C1.15757813 -0.00257813 2.31515625 -0.00515625 3.5078125 -0.0078125 C4.72210938 -0.00007812 5.93640625 0.00765625 7.1875 0.015625 C8.40179688 0.00789062 9.61609375 0.00015625 10.8671875 -0.0078125 C12.60355469 -0.00394531 12.60355469 -0.00394531 14.375 0 C15.44105469 0.00225586 16.50710937 0.00451172 17.60546875 0.00683594 C20.1875 0.265625 20.1875 0.265625 22.1875 2.265625 C13.72163494 3.73794936 5.66952156 3.41572962 -2.8125 2.265625 C-4.47880509 2.23091031 -6.14664654 2.21356708 -7.8125 2.265625 C-5.12762835 -0.41924665 -3.74773019 0.00793051 0 0 Z " fill="#CA9726" transform="translate(27.8125,170.734375)"/>
<path d="M0 0 C8.25 0 16.5 0 25 0 C25 0.33 25 0.66 25 1 C17.08 1.99 9.16 2.98 1 4 C0.67 2.68 0.34 1.36 0 0 Z " fill="#682017" transform="translate(0,160)"/>
<path d="M0 0 C0.763125 0.309375 1.52625 0.61875 2.3125 0.9375 C7.1062064 2.83268625 11.0897875 3.12037796 16.1875 3.0625 C17.31188477 3.05573242 17.31188477 3.05573242 18.45898438 3.04882812 C20.30602383 3.03706354 22.15302213 3.01912865 24 3 C22 5 22 5 18.68359375 5.23046875 C17.26815928 5.2277627 15.85271457 5.21259524 14.4375 5.1875 C13.31903687 5.17783203 13.31903687 5.17783203 12.17797852 5.16796875 C4.10400138 5.0598766 -3.94693876 4.56441981 -12 4 C-12 3.67 -12 3.34 -12 3 C-8.04 3 -4.08 3 0 3 C0 2.01 0 1.02 0 0 Z " fill="#9B2546" transform="translate(172,210)"/>
<path d="M0 0 C1.65 0.33 3.3 0.66 5 1 C5 1.99 5 2.98 5 4 C4.2575 4.12375 3.515 4.2475 2.75 4.375 C-0.97838339 5.22235986 -3.2941453 6.2941453 -6 9 C-7.125 5.25 -7.125 5.25 -6 3 C-4.02 3.495 -4.02 3.495 -2 4 C-1.34 2.68 -0.68 1.36 0 0 Z " fill="#C31148" transform="translate(172,195)"/>
<path d="M0 0 C0.33 0.99 0.66 1.98 1 3 C4.51190809 4.22969878 4.51190809 4.22969878 8 5 C8 5.66 8 6.32 8 7 C8.99 7.33 9.98 7.66 11 8 C7.37 8 3.74 8 0 8 C0 5.36 0 2.72 0 0 Z " fill="#F70D57" transform="translate(169,184)"/>
<path d="M0 0 C2.31 0 4.62 0 7 0 C6.67 2.31 6.34 4.62 6 7 C4.35 6.67 2.7 6.34 1 6 C0.67 4.02 0.34 2.04 0 0 Z " fill="#FBD71E" transform="translate(161,172)"/>
<path d="M0 0 C-3.68087353 2.45391569 -6.44355588 2.22802759 -10.6875 2.125 C-11.7403418 2.11146484 -11.7403418 2.11146484 -12.81445312 2.09765625 C-14.54311525 2.07413704 -16.27160145 2.03826713 -18 2 C-15.47006199 -0.52993801 -14.2003339 -0.39753671 -10.6875 -0.6875 C-9.74261719 -0.77386719 -8.79773437 -0.86023438 -7.82421875 -0.94921875 C-5.04498421 -0.99919116 -2.69338631 -0.65249614 0 0 Z " fill="#AD4303" transform="translate(40,169)"/>
<path d="M0 0 C-3.75 2 -3.75 2 -6 2 C-6.33 2.66 -6.66 3.32 -7 4 C-7.66 3.67 -8.32 3.34 -9 3 C-9.99 3.185625 -10.98 3.37125 -12 3.5625 C-13.485 3.7790625 -13.485 3.7790625 -15 4 C-15.66 3.34 -16.32 2.68 -17 2 C-11.23918159 0.7017874 -5.91260345 -0.25706972 0 0 Z " fill="#902B13" transform="translate(22,161)"/>
<path d="M0 0 C2.02408755 0.09002398 4.04544287 0.24641038 6.0625 0.4375 C7.71958984 0.59025391 7.71958984 0.59025391 9.41015625 0.74609375 C10.26480469 0.82988281 11.11945312 0.91367188 12 1 C10.1875 2.5625 10.1875 2.5625 8 4 C7.01 3.67 6.02 3.34 5 3 C4.01 3.33 3.02 3.66 2 4 C2 3.34 2 2.68 2 2 C1.01 1.67 0.02 1.34 -1 1 C-0.67 0.67 -0.34 0.34 0 0 Z " fill="#A80638" transform="translate(30,202)"/>
<path d="M0 0 C0.66 0.33 1.32 0.66 2 1 C0.88121617 2.17262904 -0.24523051 3.33795138 -1.375 4.5 C-2.00148438 5.1496875 -2.62796875 5.799375 -3.2734375 6.46875 C-5 8 -5 8 -7 8 C-5.50902342 4.2047869 -3.24299151 2.38957269 0 0 Z " fill="#AAAAB1" transform="translate(336,164)"/>
<path d="M0 0 C0.66 0.33 1.32 0.66 2 1 C1.0479279 2.00596297 0.08812654 3.00461563 -0.875 4 C-1.40867187 4.556875 -1.94234375 5.11375 -2.4921875 5.6875 C-4 7 -4 7 -6 7 C-4.60667426 3.63279613 -3.0210714 2.0140476 0 0 Z " fill="#A19EA7" transform="translate(259,162)"/>
<path d="" fill="#000000" transform="translate(0,0)"/>
<path d="" fill="#000000" transform="translate(0,0)"/>
<path d="" fill="#000000" transform="translate(0,0)"/>
<path d="" fill="#000000" transform="translate(0,0)"/>
<path d="" fill="#000000" transform="translate(0,0)"/>
<path d="" fill="#000000" transform="translate(0,0)"/>
<path d="" fill="#000000" transform="translate(0,0)"/>
<path d="" fill="#000000" transform="translate(0,0)"/>
<path d="" fill="#000000" transform="translate(0,0)"/>
<path d="" fill="#000000" transform="translate(0,0)"/>
<path d="" fill="#000000" transform="translate(0,0)"/>
<path d="" fill="#000000" transform="translate(0,0)"/>
<path d="" fill="#000000" transform="translate(0,0)"/>
<path d="" fill="#000000" transform="translate(0,0)"/>
<path d="" fill="#000000" transform="translate(0,0)"/>
<path d="" fill="#000000" transform="translate(0,0)"/>
<path d="" fill="#000000" transform="translate(0,0)"/>
<path d="" fill="#000000" transform="translate(0,0)"/>
<path d="" fill="#000000" transform="translate(0,0)"/>
<path d="" fill="#000000" transform="translate(0,0)"/>
<path d="" fill="#000000" transform="translate(0,0)"/>
<path d="" fill="#000000" transform="translate(0,0)"/>
<path d="" fill="#000000" transform="translate(0,0)"/>
<path d="" fill="#000000" transform="translate(0,0)"/>
<path d="" fill="#000000" transform="translate(0,0)"/>
<path d="" fill="#000000" transform="translate(0,0)"/>
<path d="" fill="#000000" transform="translate(0,0)"/>
<path d="" fill="#000000" transform="translate(0,0)"/>
<path d="" fill="#000000" transform="translate(0,0)"/>
<path d="" fill="#000000" transform="translate(0,0)"/>
<path d="" fill="#000000" transform="translate(0,0)"/>
<path d="" fill="#000000" transform="translate(0,0)"/>
<path d="" fill="#000000" transform="translate(0,0)"/>
<path d="" fill="#000000" transform="translate(0,0)"/>
<path d="" fill="#000000" transform="translate(0,0)"/>
<path d="" fill="#000000" transform="translate(0,0)"/>
<path d="" fill="#000000" transform="translate(0,0)"/>
<path d="" fill="#000000" transform="translate(0,0)"/>
<path d="" fill="#000000" transform="translate(0,0)"/>
<path d="" fill="#000000" transform="translate(0,0)"/>
<path d="" fill="#000000" transform="translate(0,0)"/>
<path d="" fill="#000000" transform="translate(0,0)"/>
<path d="" fill="#000000" transform="translate(0,0)"/>
<path d="" fill="#000000" transform="translate(0,0)"/>
<path d="" fill="#000000" transform="translate(0,0)"/>
<path d="" fill="#000000" transform="translate(0,0)"/>
<path d="" fill="#000000" transform="translate(0,0)"/>
<path d="" fill="#000000" transform="translate(0,0)"/>
<path d="" fill="#000000" transform="translate(0,0)"/>
<path d="" fill="#000000" transform="translate(0,0)"/>
<path d="" fill="#000000" transform="translate(0,0)"/>
<path d="" fill="#000000" transform="translate(0,0)"/>
<path d="" fill="#000000" transform="translate(0,0)"/>
<path d="" fill="#000000" transform="translate(0,0)"/>
<path d="" fill="#000000" transform="translate(0,0)"/>
<path d="" fill="#000000" transform="translate(0,0)"/>
<path d="" fill="#000000" transform="translate(0,0)"/>
<path d="" fill="#000000" transform="translate(0,0)"/>
<path d="" fill="#000000" transform="translate(0,0)"/>
<path d="" fill="#000000" transform="translate(0,0)"/>
<path d="" fill="#000000" transform="translate(0,0)"/>
<path d="" fill="#000000" transform="translate(0,0)"/>
<path d="" fill="#000000" transform="translate(0,0)"/>
<path d="" fill="#000000" transform="translate(0,0)"/>
<path d="" fill="#000000" transform="translate(0,0)"/>
<path d="" fill="#000000" transform="translate(0,0)"/>
<path d="" fill="#000000" transform="translate(0,0)"/>
<path d="" fill="#000000" transform="translate(0,0)"/>
<path d="" fill="#000000" transform="translate(0,0)"/>
<path d="" fill="#000000" transform="translate(0,0)"/>
<path d="" fill="#000000" transform="translate(0,0)"/>
<path d="" fill="#000000" transform="translate(0,0)"/>
<path d="" fill="#000000" transform="translate(0,0)"/>
<path d="" fill="#000000" transform="translate(0,0)"/>
<path d="" fill="#000000" transform="translate(0,0)"/>
<path d="" fill="#000000" transform="translate(0,0)"/>
<path d="" fill="#000000" transform="translate(0,0)"/>
<path d="" fill="#000000" transform="translate(0,0)"/>
<path d="" fill="#000000" transform="translate(0,0)"/>
<path d="" fill="#000000" transform="translate(0,0)"/>
<path d="" fill="#000000" transform="translate(0,0)"/>
<path d="" fill="#000000" transform="translate(0,0)"/>
<path d="" fill="#000000" transform="translate(0,0)"/>
<path d="" fill="#000000" transform="translate(0,0)"/>
<path d="" fill="#000000" transform="translate(0,0)"/>
<path d="" fill="#000000" transform="translate(0,0)"/>
<path d="" fill="#000000" transform="translate(0,0)"/>
<path d="" fill="#000000" transform="translate(0,0)"/>
<path d="" fill="#000000" transform="translate(0,0)"/>
<path d="" fill="#000000" transform="translate(0,0)"/>
</svg>
